PathFileType	4	(X/Y/Z)	C:\Users\WrightLab\Desktop\Jo\P1.2Trial2.trc
DataRate	CameraRate	NumFrames	NumMarkers	Units	OrigDataRate	OrigDataStartFrame	OrigNumFrames
100.00	100.00	       12	19	mm	100.00	629	       838
Frame#	Time	Headset_Front			Headset_Back			Headset_Left			Headset_Right			Left_Shoulder			Right_Shoulder			Sternum			C7			Left Elbow			Right Elbow			Left Wrist			Right Wrist			Left ASIS			Right ASIS			S2			Left Knee			Right Knee			Left Ankle			Right Ankle			
		X1	Y1	Z1	X2	Y2	Z2	X3	Y3	Z3	X4	Y4	Z4	X5	Y5	Z5	X6	Y6	Z6	X7	Y7	Z7	X8	Y8	Z8	X9	Y9	Z9	X10	Y10	Z10	X11	Y11	Z11	X12	Y12	Z12	X13	Y13	Z13	X14	Y14	Z14	X15	Y15	Z15	X16	Y16	Z16	X17	Y17	Z17	X18	Y18	Z18	X19	Y19	Z19	

629	6.280	-622.24597	1344.10742	-431.29944	-747.19226	1490.83362	-314.87146	-847.05914	1385.23608	-405.09741	-715.79651	1264.80078	-519.03741	-958.69385	1214.42944	-276.82852	-538.26013	1228.22607	-265.23370	-746.30035	1122.95056	-367.90991	-752.80273	1306.02380	-178.33081	-1055.02441	951.41425	-193.29390	-452.23355	1005.43964	-160.19621	-1178.38208	775.78210	-244.88300	-373.11032	758.46857	-205.65819	-621.13403	813.79248	-285.57547	-872.28662	821.17633	-295.20691	-743.08356	930.61682	-28.85846	-889.93060	401.98447	-193.71010	-642.43317	450.92606	-363.57184	-871.72888	72.24873	-50.48510	-631.17792	97.74308	-358.13284	
630	6.290	-623.37677	1343.82495	-438.40759	-748.69446	1491.07654	-320.82056	-848.02887	1385.09180	-412.17206	-716.72583	1264.20496	-525.63434	-959.96973	1213.40479	-282.33978	-539.50806	1226.61682	-274.65836	-748.10260	1122.19849	-374.53952	-754.04572	1305.27026	-185.07559	-1053.98352	949.62646	-196.45775	-453.36270	1004.32013	-167.47823	-1174.69092	770.79999	-249.26817	-371.15765	758.20917	-209.69525	-623.58728	812.33783	-291.00540	-874.40100	820.09930	-301.33820	-743.75916	930.09882	-34.67344	-890.51990	401.32321	-199.18207	-644.39258	450.37640	-371.06674	-871.69287	72.55477	-52.26195	-634.02502	100.49433	-381.21561	
631	6.300	-624.56824	1342.52417	-445.03448	-749.57446	1490.22021	-327.13760	-848.65143	1384.16968	-418.13632	-717.55438	1263.63159	-531.81354	-960.76068	1212.03662	-288.08856	-540.32697	1225.78638	-283.72293	-749.52594	1120.78735	-381.69144	-753.34601	1303.21619	-191.80241	-1050.88513	947.59766	-200.34270	-454.25461	1003.23096	-173.81174	-1170.58704	766.18518	-253.41760	-371.61093	756.84241	-214.54150	-625.37823	810.83533	-299.54742	-876.72028	819.14612	-308.09427	-743.94159	928.99786	-42.27803	-891.10834	400.05145	-203.02209	-645.74951	449.33517	-378.00092	-870.95715	71.50845	-52.63103	-636.78772	104.83592	-402.18301	
632	6.310	-625.24463	1341.49231	-450.58188	-750.04816	1488.96460	-333.07077	-849.39185	1383.55286	-425.21008	-718.56299	1263.51196	-539.18414	-961.74933	1210.72412	-293.48865	-541.25708	1223.11304	-285.44037	-751.06940	1119.84875	-388.83011	-754.10449	1302.45154	-197.88100	-1050.06274	946.56696	-205.49788	-455.08475	1001.56189	-181.30659	-1166.11951	761.09277	-258.51181	-371.57852	755.23944	-219.15448	-626.86426	809.75201	-308.33276	-879.15796	818.16150	-315.12091	-743.42957	927.74133	-50.33686	-891.92200	398.43158	-208.20689	-646.25531	448.47827	-386.00510	-870.54578	71.04496	-53.31385	-639.10144	110.27378	-421.04648	
633	6.320	-625.26575	1341.02515	-457.81305	-750.59656	1487.49805	-339.52945	-850.12683	1382.77612	-431.80627	-718.93060	1263.01062	-545.93597	-962.52930	1209.50427	-299.98260	-541.75964	1220.79578	-291.56955	-752.04156	1118.83276	-396.07651	-755.47211	1300.97021	-205.51422	-1048.27844	944.89862	-209.91951	-456.02274	999.57214	-188.35120	-1160.99646	755.81500	-262.94446	-371.50702	754.20758	-224.06693	-629.54321	807.74512	-316.74960	-881.40039	817.55432	-322.08261	-743.97699	925.52289	-58.06993	-892.23578	397.33344	-213.07579	-647.01733	447.27484	-392.91455	-870.04785	70.71556	-54.15779	-640.94482	114.96470	-438.87982	
634	6.330	-625.86615	1339.66174	-463.38757	-750.39758	1486.49890	-345.48398	-850.33795	1381.86792	-438.54218	-719.20917	1262.55896	-552.83759	-963.21301	1208.37402	-306.04163	-542.80707	1219.59888	-305.08112	-753.65875	1118.12012	-403.93814	-755.31519	1299.39014	-212.85600	-1046.22034	942.56921	-214.73006	-456.59055	997.86115	-195.27750	-1156.60449	752.14709	-268.53372	-371.40240	752.81384	-229.37552	-631.03680	806.63849	-324.34528	-883.89166	816.51202	-328.71295	-744.12787	923.82318	-64.93675	-892.44098	396.22125	-218.29358	-647.01282	445.56656	-399.60648	-870.05762	70.95542	-55.09636	-643.96753	118.97842	-456.05566	
635	6.340	-626.14496	1339.01953	-469.68582	-750.81750	1485.33508	-351.62213	-850.29523	1381.58679	-445.59027	-719.50067	1261.89160	-560.28986	-963.99963	1206.72546	-311.59277	-542.79919	1217.46643	-307.88168	-754.53595	1116.47253	-410.91696	-754.92334	1297.45544	-219.01265	-1044.09827	940.99518	-219.28958	-457.45255	996.19904	-203.54103	-1149.65894	746.33026	-274.50903	-371.71454	751.42755	-234.91391	-634.93146	805.08240	-332.08701	-886.18384	815.78931	-336.10962	-743.90125	922.29865	-70.79782	-892.55121	395.03577	-223.79291	-647.62775	444.55826	-407.25919	-870.13831	70.97594	-55.42489	-646.67102	120.86846	-471.35898	
636	6.350	-626.27997	1338.15649	-478.57678	-750.95593	1484.28650	-358.66962	-850.14740	1380.85681	-452.51724	-719.41870	1261.64307	-567.37909	-964.51062	1205.91370	-318.71350	-543.78070	1216.03308	-316.10599	-755.80347	1115.91016	-418.89813	-755.90424	1296.43787	-226.43159	-1041.03125	939.30890	-224.15662	-458.13611	994.40051	-210.78983	-1143.95886	741.85175	-280.93283	-371.50485	750.21991	-240.54637	-635.18665	802.76532	-342.09348	-888.46582	815.34106	-343.74973	-743.68512	920.34552	-80.32629	-893.03333	393.91620	-230.76407	-647.14099	442.91376	-415.13022	-870.33099	71.41473	-55.96246	-648.37445	122.96971	-487.30545	
637	6.360	-625.55872	1337.06836	-484.90128	-750.41187	1481.62659	-365.04163	-850.44867	1379.71350	-459.24667	-719.30035	1261.09729	-574.61316	-965.07397	1204.45740	-325.25970	-543.66046	1214.85474	-326.13858	-757.04431	1115.31641	-427.28052	-755.58270	1294.53198	-233.84213	-1039.22302	937.89575	-230.20195	-459.06000	992.06696	-217.60114	-1137.28284	736.55286	-287.41251	-371.44321	749.05328	-246.84886	-634.26141	801.77814	-354.14893	-890.85291	814.34607	-350.90070	-743.24054	918.98486	-88.43946				-646.87634	440.82700	-422.25830	-870.48846	71.94971	-56.47754	-651.60895	124.06570	-502.87463	
638	6.370	-625.70697	1335.99817	-490.78659	-749.88269	1480.67578	-371.53842	-849.76923	1378.89893	-466.05154	-719.10968	1260.79016	-582.32935	-965.23102	1203.55615	-331.31018	-543.69452	1211.94763	-335.35837	-757.64728	1113.79663	-434.95633	-755.13177	1292.14746	-240.81970	-1036.60352	935.99713	-236.06918	-459.72736	990.13336	-225.83989	-1130.79578	733.16534	-293.55237	-373.22046	746.48126	-252.94250	-636.56464	799.66168	-362.77161	-892.88678	813.88287	-358.31497	-743.20551	916.83722	-96.93085				-646.25360	438.55872	-429.91861	-870.22626	72.91343	-57.86872	-652.20160	126.85688	-517.13214	
639	6.380	-625.69879	1335.33838	-498.06482	-749.78619	1479.42151	-378.07431	-849.44617	1378.05115	-473.04010	-718.72461	1260.33728	-588.90637	-965.09747	1201.94946	-338.80267	-544.14618	1210.64026	-343.39481	-758.45935	1112.96753	-442.67130	-754.76678	1290.50061	-247.67917	-1035.40625	934.34808	-242.74672	-460.17545	988.23047	-232.69693	-1124.32104	728.79047	-300.37689	-373.35953	744.87177	-258.42563	-639.01868	796.50397	-371.21295	-894.76538	813.44373	-366.41653	-742.36560	914.06738	-106.61615				-646.06421	436.15054	-439.08466	-870.50684	73.61884	-57.80918	-652.44690	128.09119	-531.32062	
640	6.390	-624.95959	1334.31384	-505.48038	-749.44067	1479.23560	-384.69238	-848.97681	1377.82605	-480.69052	-718.17371	1260.02917	-597.25629	-964.89362	1200.84558	-345.47751	-543.51550	1208.77454	-349.60135	-759.12933	1111.85449	-450.74585	-754.82037	1288.63733	-256.24976	-1033.09180	932.29260	-249.86497	-460.88168	985.71552	-240.28003	-1117.46655	724.04694	-308.27878	-371.90164	742.85889	-264.81384				-896.69611	812.41492	-374.37497	-742.10059	912.42981	-112.04947				-646.01508	434.10638	-447.65143	-870.79315	74.34237	-57.23797	-652.71674	131.10115	-545.67389	
